<?xml version="1.0" encoding="utf-8"?>
<!-- Generator: Adobe Illustrator 25.1.0, SVG Export Plug-In . SVG Version: 6.00 Build 0)  -->
<svg version="1.1"
	 id="Layer_1" xmlns:cc="http://creativecommons.org/ns#" xmlns:dc="http://purl.org/dc/elements/1.1/" xmlns:inkscape="http://www.inkscape.org/namespaces/inkscape" xmlns:rdf="http://www.w3.org/1999/02/22-rdf-syntax-ns#" xmlns:sodipodi="http://sodipodi.sourceforge.net/DTD/sodipodi-0.dtd" xmlns:svg="http://www.w3.org/2000/svg"
	 xmlns="http://www.w3.org/2000/svg" xmlns:xlink="http://www.w3.org/1999/xlink" x="0px" y="0px" viewBox="0 0 71.4 50"
	 style="enable-background:new 0 0 71.4 50;" xml:space="preserve">
<style type="text/css">
	.st0{opacity:0;fill:#282828;}
	.st1{fill:#FFFFFF;}
</style>
<sodipodi:namedview  bordercolor="#666666" borderopacity="1" fit-margin-bottom="0" fit-margin-left="0" fit-margin-right="0" fit-margin-top="0" gridtolerance="10" guidetolerance="10" id="namedview29" inkscape:current-layer="Layer_1" inkscape:cx="30.091613" inkscape:cy="15.29613" inkscape:pageopacity="0" inkscape:pageshadow="2" inkscape:window-height="715" inkscape:window-maximized="1" inkscape:window-width="1366" inkscape:window-x="-8" inkscape:window-y="-8" inkscape:zoom="5.4355702" objecttolerance="10" pagecolor="#ffffff" showgrid="false">
	</sodipodi:namedview>
<g id="g5" transform="scale(0.58823529,0.58823529)">
	<path id="path7" inkscape:connector-curvature="0" class="st0" d="M118.9,13.3c-1.4-5.2-5.5-9.3-10.7-10.7C98.7,0,60.7,0,60.7,0
		s-38,0-47.5,2.5C8.1,3.9,3.9,8.1,2.5,13.3C0,22.8,0,42.5,0,42.5s0,19.8,2.5,29.2C3.9,76.9,8,81,13.2,82.4C22.8,85,60.7,85,60.7,85
		s38,0,47.5-2.5c5.2-1.4,9.3-5.5,10.7-10.7c2.5-9.5,2.5-29.2,2.5-29.2S121.5,22.8,118.9,13.3z"/>
	<polygon id="polygon9" class="st1" points="80.2,42.5 48.6,24.3 48.6,60.7 	"/>
</g>
</svg>
